<!--?xml version="1.0" standalone="no"?-->
              <svg id="sw-js-blob-svg" viewBox="0 0 100 100" xmlns="http://www.w3.org/2000/svg" version="1.1">
                    <defs> 
                        <linearGradient id="sw-gradient" x1="0" x2="1" y1="1" y2="0">
                            <stop id="stop1" stop-color="rgba(254, 249, 247, 1)" offset="0%"></stop>
                            <stop id="stop2" stop-color="rgba(254, 249, 247, 1)" offset="100%"></stop>
                        </linearGradient>
                    </defs>
                <path fill="url(#sw-gradient)" d="M15.8,-26.9C19,-22.5,19.1,-15.6,23.7,-9.6C28.3,-3.6,37.4,1.5,38.8,7C40.2,12.4,33.9,18.2,27.9,22.9C21.8,27.7,16.1,31.5,10.2,31.9C4.4,32.2,-1.7,29.2,-9,28.2C-16.4,27.2,-25.2,28.3,-29.7,24.8C-34.2,21.3,-34.5,13.1,-35.9,5C-37.3,-3.1,-39.8,-11.2,-37.5,-17.5C-35.2,-23.8,-28.1,-28.3,-21.1,-30.9C-14,-33.5,-7,-34.2,-0.4,-33.6C6.3,-33.1,12.6,-31.3,15.8,-26.9Z" width="100%" height="100%" transform="translate(50 50)" stroke-width="0" style="transition: all 0.3s ease 0s;" stroke="url(#sw-gradient)"></path>
              </svg>